<svg width="10" height="10" viewBox="0 0 10 10" fill="none" xmlns="http://www.w3.org/2000/svg">
<path d="M0 7.9184V10.0017H2.08333L8.22222 3.86285L6.13889 1.77952L0 7.9184ZM9.83334 2.25175C9.88594 2.20155 9.92781 2.14121 9.95642 2.07436C9.98504 2.00752 9.99979 1.93556 9.99979 1.86285C9.99979 1.79014 9.98504 1.71819 9.95642 1.65134C9.92781 1.5845 9.88594 1.52415 9.83334 1.47396L8.52778 0.168412C8.47758 0.115805 8.41724 0.0739252 8.35039 0.0453135C8.28355 0.0167018 8.2116 0.00195312 8.13889 0.00195312C8.06618 0.00195312 7.99422 0.0167018 7.92738 0.0453135C7.86053 0.0739252 7.8002 0.115805 7.75 0.168412L6.72222 1.19619L8.80555 3.27952L9.83334 2.25175Z" fill="white"/>
</svg>
