<svg width="13" height="16" viewBox="0 0 13 16" fill="none" xmlns="http://www.w3.org/2000/svg">
<g clip-path="url(#clip0)">
<path d="M12.6773 13.1939L11.9633 4.19388C11.9427 3.91166 11.8165 3.64758 11.6098 3.45428C11.4032 3.26097 11.1313 3.15264 10.8483 3.15088H9.43631V5.25088C9.43924 5.31422 9.42929 5.37751 9.40707 5.4369C9.38484 5.49629 9.3508 5.55056 9.30701 5.59642C9.26322 5.64228 9.21058 5.67879 9.15228 5.70373C9.09398 5.72867 9.03122 5.74153 8.96781 5.74153C8.9044 5.74153 8.84164 5.72867 8.78334 5.70373C8.72504 5.67879 8.6724 5.64228 8.62861 5.59642C8.58482 5.55056 8.55078 5.49629 8.52856 5.4369C8.50633 5.37751 8.49638 5.31422 8.49931 5.25088V3.15088H4.18831V5.25088C4.19124 5.31422 4.18129 5.37751 4.15907 5.4369C4.13684 5.49629 4.10281 5.55056 4.05901 5.59642C4.01522 5.64228 3.96258 5.67879 3.90428 5.70373C3.84598 5.72867 3.78322 5.74153 3.71981 5.74153C3.6564 5.74153 3.59364 5.72867 3.53534 5.70373C3.47704 5.67879 3.4244 5.64228 3.38061 5.59642C3.33682 5.55056 3.30278 5.49629 3.28056 5.4369C3.25833 5.37751 3.24838 5.31422 3.25131 5.25088V3.15088H1.83931C1.5576 3.15194 1.28654 3.25866 1.07971 3.44993C0.872885 3.6412 0.745345 3.90311 0.722309 4.18388L0.00730896 13.1899C-0.0195434 13.5476 0.0277735 13.907 0.146294 14.2456C0.264814 14.5841 0.451985 14.8946 0.696075 15.1575C0.940166 15.4203 1.23591 15.6299 1.56479 15.7732C1.89367 15.9164 2.24859 15.9902 2.60731 15.9899H10.0773C10.4366 15.9903 10.792 15.9163 11.1213 15.7727C11.4507 15.6291 11.7467 15.4189 11.9909 15.1554C12.2351 14.8919 12.4221 14.5807 12.5402 14.2414C12.6584 13.9021 12.705 13.5421 12.6773 13.1839V13.1939ZM8.45331 8.60888L6.02931 11.0329C5.98583 11.0765 5.93417 11.1111 5.87728 11.1348C5.82039 11.1584 5.75941 11.1705 5.69781 11.1705C5.63622 11.1705 5.57522 11.1584 5.51834 11.1348C5.46145 11.1111 5.40979 11.0765 5.36631 11.0329L4.23031 9.89688C4.14646 9.80814 4.10052 9.6902 4.10225 9.56813C4.10398 9.44606 4.15324 9.32947 4.23957 9.24314C4.3259 9.15681 4.44249 9.10755 4.56456 9.10582C4.68663 9.10409 4.80457 9.15003 4.89331 9.23388L5.69331 10.0339L7.78531 7.94188C7.82838 7.8963 7.88015 7.85982 7.93756 7.83459C7.99497 7.80937 8.05686 7.79592 8.11956 7.79503C8.18226 7.79414 8.2445 7.80584 8.30261 7.82942C8.36071 7.85301 8.4135 7.88801 8.45784 7.93235C8.50218 7.97669 8.53718 8.02947 8.56076 8.08758C8.58435 8.14568 8.59605 8.20793 8.59516 8.27063C8.59427 8.33333 8.58081 8.39522 8.55559 8.45263C8.53037 8.51004 8.49389 8.56181 8.44831 8.60488L8.45331 8.60888Z" fill="white"/>
<path d="M6.34398 0C5.52423 0.00184896 4.73859 0.328311 4.15894 0.907961C3.57929 1.48761 3.25283 2.27325 3.25098 3.093V3.156H4.18797V3.093C4.18797 2.52133 4.41507 1.97307 4.81931 1.56883C5.22354 1.1646 5.7718 0.9375 6.34348 0.9375C6.91515 0.9375 7.46341 1.1646 7.86765 1.56883C8.27188 1.97307 8.49898 2.52133 8.49898 3.093V3.156H9.43597V3.093C9.43413 2.27343 9.1078 1.48793 8.52837 0.908313C7.94893 0.328692 7.16355 0.00211295 6.34398 0V0Z" fill="white"/>
</g>
<defs>
<clipPath id="clip0">
<rect width="12.686" height="16" fill="white"/>
</clipPath>
</defs>
</svg>
