<svg width="14" height="14" viewBox="0 0 14 14" fill="none" xmlns="http://www.w3.org/2000/svg">
<path d="M13.787 12.752L10.336 9.28599C11.2193 8.28123 11.7076 6.98982 11.71 5.65199C11.6808 4.12681 11.0481 2.67541 9.9506 1.61594C8.85307 0.556466 7.38026 -0.0246422 5.855 -1.06613e-05C4.32974 -0.0246422 2.85693 0.556466 1.7594 1.61594C0.661878 2.67541 0.0291828 4.12681 0 5.65199C0.0302278 7.17647 0.663381 8.62685 1.76079 9.68546C2.8582 10.7441 4.33042 11.3246 5.855 11.3C7.05051 11.3045 8.21953 10.948 9.209 10.277L12.686 13.769C12.829 13.9104 13.0209 13.9913 13.222 13.995C13.4231 13.9988 13.6179 13.925 13.766 13.789C13.8371 13.7232 13.8942 13.6438 13.9339 13.5555C13.9736 13.4672 13.995 13.3718 13.997 13.275C13.999 13.1781 13.9814 13.0819 13.9453 12.9921C13.9092 12.9022 13.8554 12.8206 13.787 12.752ZM5.855 1.47499C6.98239 1.45679 8.07098 1.88638 8.88211 2.66958C9.69324 3.45277 10.1607 4.52566 10.182 5.65299C10.1604 6.78015 9.69287 7.85277 8.88177 8.63576C8.07067 9.41874 6.98222 9.8482 5.855 9.82999C4.72744 9.84846 3.63859 9.41899 2.82724 8.63576C2.01589 7.85253 1.5483 6.7795 1.527 5.65199C1.54856 4.52466 2.01627 3.45188 2.82759 2.66886C3.63891 1.88585 4.72761 1.45652 5.855 1.47499Z" fill="#77798C"/>
</svg>
